HIERARCHY
ROOT Hips
{
	OFFSET 0.000000 121.760803 0.000000
	CHANNELS 6 Xposition Yposition Zposition Xrotation Yrotation Zrotation 
	JOINT Spine
	{
		OFFSET 0.072000 7.257294 -0.789700
		CHANNELS 3 Xrotation Yrotation Zrotation
		JOINT Spine1
		{
			OFFSET 0.000000 12.508769 -0.658067
			CHANNELS 3 Xrotation Yrotation Zrotation
			JOINT Spine1_split
			{
				OFFSET 0.000000 12.508769 -0.658067
				CHANNELS 3 Xrotation Yrotation Zrotation
				JOINT Spine2
				{
					OFFSET 0.000000 12.508769 -0.658067
					CHANNELS 3 Xrotation Yrotation Zrotation
					JOINT Neck
					{
						OFFSET 0.000000 14.033295 7.520400
						CHANNELS 3 Xrotation Yrotation Zrotation
						JOINT Head
						{
							OFFSET 0.000000 8.198502 5.703100
							CHANNELS 3 Xrotation Yrotation Zrotation
							JOINT HeadTop_End
							{
								OFFSET 0.000000 17.760803 13.332701
								CHANNELS 3 Xrotation Yrotation Zrotation
								End Site
								{
									OFFSET 0.000000 0.000000 0.000000
								}
							}
						}
					}
					JOINT LeftShoulder
					{
						OFFSET 6.292450 5.785301 -0.669000
						CHANNELS 3 Xrotation Yrotation Zrotation
						JOINT LeftShoulder_split
						{
							OFFSET 6.292450 5.785301 -0.669000
							CHANNELS 3 Xrotation Yrotation Zrotation
							JOINT LeftArm
							{
								OFFSET 13.907140 -6.093903 1.965100
								CHANNELS 3 Xrotation Yrotation Zrotation
								JOINT LeftForeArm
								{
									OFFSET 34.140198 0.000000 0.000000
									CHANNELS 3 Xrotation Yrotation Zrotation
									JOINT LeftHand
									{
										OFFSET 40.960209 0.000000 0.000000
										CHANNELS 3 Xrotation Yrotation Zrotation
										JOINT LeftHandThumb1
										{
											OFFSET 10.006996 -7.170425 9.573125
											CHANNELS 3 Xrotation Yrotation Zrotation
											JOINT LeftHandThumb2
											{
												OFFSET 1.835007 -1.059448 1.059443
												CHANNELS 3 Xrotation Yrotation Zrotation
												JOINT LeftHandThumb3
												{
													OFFSET 2.112267 -1.219513 1.219518
													CHANNELS 3 Xrotation Yrotation Zrotation
													JOINT LeftHandThumb4
													{
														OFFSET 4.843811 -2.796570 2.796576
														CHANNELS 3 Xrotation Yrotation Zrotation
														End Site
														{
															OFFSET 0.000000 0.000000 0.000000
														}
													}
												}
											}
										}
										JOINT LeftHandIndex1
										{
											OFFSET 18.389847 -0.922348 4.596882
											CHANNELS 3 Xrotation Yrotation Zrotation
											JOINT LeftHandIndex2
											{
												OFFSET 4.711273 0.000000 0.000000
												CHANNELS 3 Xrotation Yrotation Zrotation
												JOINT LeftHandIndex3
												{
													OFFSET 2.886131 0.000000 0.000000
													CHANNELS 3 Xrotation Yrotation Zrotation
													JOINT LeftHandIndex4
													{
														OFFSET 6.145912 0.000000 0.000000
														CHANNELS 3 Xrotation Yrotation Zrotation
														End Site
														{
															OFFSET 0.000000 0.000000 0.000000
														}
													}
												}
											}
										}
										JOINT LeftHandMiddle1
										{
											OFFSET 18.013008 0.000000 0.000000
											CHANNELS 3 Xrotation Yrotation Zrotation
											JOINT LeftHandMiddle2
											{
												OFFSET 4.946693 0.000000 0.000000
												CHANNELS 3 Xrotation Yrotation Zrotation
												JOINT LeftHandMiddle3
												{
													OFFSET 3.342232 0.000000 0.000000
													CHANNELS 3 Xrotation Yrotation Zrotation
													JOINT LeftHandMiddle4
													{
														OFFSET 4.461754 0.000000 0.000000
														CHANNELS 3 Xrotation Yrotation Zrotation
														End Site
														{
															OFFSET 0.000000 0.000000 0.000000
														}
													}
												}
											}
										}
										JOINT LeftHandRing1
										{
											OFFSET 15.849892 -0.102921 -4.126150
											CHANNELS 3 Xrotation Yrotation Zrotation
											JOINT LeftHandRing2
											{
												OFFSET 3.527054 0.000000 0.000000
												CHANNELS 3 Xrotation Yrotation Zrotation
												JOINT LeftHandRing3
												{
													OFFSET 2.961098 0.000000 0.000000
													CHANNELS 3 Xrotation Yrotation Zrotation
													JOINT LeftHandRing4
													{
														OFFSET 4.927200 0.000000 0.000000
														CHANNELS 3 Xrotation Yrotation Zrotation
														End Site
														{
															OFFSET 0.000000 0.000000 0.000000
														}
													}
												}
											}
										}
										JOINT LeftHandPinky1
										{
											OFFSET 12.791824 -0.832031 -6.799156
											CHANNELS 3 Xrotation Yrotation Zrotation
											JOINT LeftHandPinky2
											{
												OFFSET 3.327133 0.000000 0.000000
												CHANNELS 3 Xrotation Yrotation Zrotation
												JOINT LeftHandPinky3
												{
													OFFSET 3.014900 0.000000 0.000000
													CHANNELS 3 Xrotation Yrotation Zrotation
													JOINT LeftHandPinky4
													{
														OFFSET 5.847786 0.000000 0.000000
														CHANNELS 3 Xrotation Yrotation Zrotation
														End Site
														{
															OFFSET 0.000000 0.000000 0.000000
														}
													}
												}
											}
										}
									}
								}
							}
						}
					}
					JOINT RightShoulder
					{
						OFFSET -6.292450 5.785301 -0.669000
						CHANNELS 3 Xrotation Yrotation Zrotation
						JOINT RightShoulder_split
						{
							OFFSET -6.292450 5.785301 -0.669000
							CHANNELS 3 Xrotation Yrotation Zrotation
							JOINT RightArm
							{
								OFFSET -13.907140 -6.093903 1.965100
								CHANNELS 3 Xrotation Yrotation Zrotation
								JOINT RightForeArm
								{
									OFFSET -34.140198 0.000000 0.000000
									CHANNELS 3 Xrotation Yrotation Zrotation
									JOINT RightHand
									{
										OFFSET -40.960209 0.000000 0.000000
										CHANNELS 3 Xrotation Yrotation Zrotation
										JOINT RightHandThumb1
										{
											OFFSET -10.007050 -7.170456 9.573117
											CHANNELS 3 Xrotation Yrotation Zrotation
											JOINT RightHandThumb2
											{
												OFFSET -1.835007 -1.059448 1.059443
												CHANNELS 3 Xrotation Yrotation Zrotation
												JOINT RightHandThumb3
												{
													OFFSET -2.112267 -1.219513 1.219518
													CHANNELS 3 Xrotation Yrotation Zrotation
													JOINT RightHandThumb4
													{
														OFFSET -4.843834 -2.796585 2.796590
														CHANNELS 3 Xrotation Yrotation Zrotation
														End Site
														{
															OFFSET 0.000000 0.000000 0.000000
														}
													}
												}
											}
										}
										JOINT RightHandIndex1
										{
											OFFSET -18.389870 -0.922424 4.596786
											CHANNELS 3 Xrotation Yrotation Zrotation
											JOINT RightHandIndex2
											{
												OFFSET -4.711273 0.000000 0.000000
												CHANNELS 3 Xrotation Yrotation Zrotation
												JOINT RightHandIndex3
												{
													OFFSET -2.886131 0.000000 0.000000
													CHANNELS 3 Xrotation Yrotation Zrotation
													JOINT RightHandIndex4
													{
														OFFSET -6.145920 0.000000 0.000000
														CHANNELS 3 Xrotation Yrotation Zrotation
														End Site
														{
															OFFSET 0.000000 0.000000 0.000000
														}
													}
												}
											}
										}
										JOINT RightHandMiddle1
										{
											OFFSET -18.013008 0.000000 0.000000
											CHANNELS 3 Xrotation Yrotation Zrotation
											JOINT RightHandMiddle2
											{
												OFFSET -4.946693 0.000000 0.000000
												CHANNELS 3 Xrotation Yrotation Zrotation
												JOINT RightHandMiddle3
												{
													OFFSET -3.342232 0.000000 0.000000
													CHANNELS 3 Xrotation Yrotation Zrotation
													JOINT RightHandMiddle4
													{
														OFFSET -4.461754 0.000000 0.000000
														CHANNELS 3 Xrotation Yrotation Zrotation
														End Site
														{
															OFFSET 0.000000 0.000000 0.000000
														}
													}
												}
											}
										}
										JOINT RightHandRing1
										{
											OFFSET -15.849876 -0.102936 -4.126237
											CHANNELS 3 Xrotation Yrotation Zrotation
											JOINT RightHandRing2
											{
												OFFSET -3.527054 0.000000 0.000000
												CHANNELS 3 Xrotation Yrotation Zrotation
												JOINT RightHandRing3
												{
													OFFSET -2.961098 0.000000 0.000000
													CHANNELS 3 Xrotation Yrotation Zrotation
													JOINT RightHandRing4
													{
														OFFSET -4.927200 0.000000 0.000000
														CHANNELS 3 Xrotation Yrotation Zrotation
														End Site
														{
															OFFSET 0.000000 0.000000 0.000000
														}
													}
												}
											}
										}
										JOINT RightHandPinky1
										{
											OFFSET -12.791786 -0.832077 -6.799222
											CHANNELS 3 Xrotation Yrotation Zrotation
											JOINT RightHandPinky2
											{
												OFFSET -3.327133 0.000000 0.000000
												CHANNELS 3 Xrotation Yrotation Zrotation
												JOINT RightHandPinky3
												{
													OFFSET -3.014900 0.000000 0.000000
													CHANNELS 3 Xrotation Yrotation Zrotation
													JOINT RightHandPinky4
													{
														OFFSET -5.847786 0.000000 0.000000
														CHANNELS 3 Xrotation Yrotation Zrotation
														End Site
														{
															OFFSET 0.000000 0.000000 0.000000
														}
													}
												}
											}
										}
									}
								}
							}
						}
					}
				}
			}
		}
	}
	JOINT LeftUpLeg
	{
		OFFSET 13.026900 -6.336304 -1.092800
		CHANNELS 3 Xrotation Yrotation Zrotation
		JOINT LeftLeg
		{
			OFFSET 0.524474 -46.096886 9.782700
			CHANNELS 3 Xrotation Yrotation Zrotation
			JOINT LeftFoot
			{
				OFFSET -0.524474 -53.427422 -12.948200
				CHANNELS 3 Xrotation Yrotation Zrotation
				JOINT LeftToeBase
				{
					OFFSET 0.192200 -14.009700 16.364100
					CHANNELS 3 Xrotation Yrotation Zrotation
					JOINT LeftToe_End
					{
						OFFSET -1.784700 -0.561700 9.474800
						CHANNELS 3 Xrotation Yrotation Zrotation
						End Site
						{
							OFFSET 0.000000 0.000000 0.000000
						}
					}
				}
			}
		}
	}
	JOINT RightUpLeg
	{
		OFFSET -12.883000 -6.336304 -1.092800
		CHANNELS 3 Xrotation Yrotation Zrotation
		JOINT RightLeg
		{
			OFFSET -0.524587 -46.096825 9.782800
			CHANNELS 3 Xrotation Yrotation Zrotation
			JOINT RightFoot
			{
				OFFSET 0.524587 -53.427383 -12.948300
				CHANNELS 3 Xrotation Yrotation Zrotation
				JOINT RightToeBase
				{
					OFFSET -0.192200 -14.009700 16.364100
					CHANNELS 3 Xrotation Yrotation Zrotation
					JOINT RightToe_End
					{
						OFFSET 1.784700 -0.561700 9.474800
						CHANNELS 3 Xrotation Yrotation Zrotation
						End Site
						{
							OFFSET 0.000000 0.000000 0.000000
						}
					}
				}
			}
		}
	}
}
MOTION
Frames: 4
Frame Time: 0.016667
0.295693 113.888306 0.799813 1.940148 1.928172 -2.649161 6.223575 -1.002281 2.518779 2.498163 -2.419468 1.232352 0.000000 0.000000 0.000000 2.471488 -2.375263 1.342052 -0.476783 2.129173 -0.237603 -3.192700 4.531153 -1.881902 0.000000 -0.000000 0.000000 0.352375 -9.169221 -14.380743 0.000000 0.000000 0.000000 9.011952 -24.442283 -57.554603 0.000002 -11.061371 0.000000 3.271992 3.566769 -10.594341 5.264568 3.579093 10.848984 6.474991 8.367007 6.368030 2.011409 -7.323828 21.364137 0.000001 -0.000001 0.000000 -2.233902 -4.155355 -17.702578 0.202683 1.529122 -15.099448 0.202686 1.529137 -15.099439 -0.000002 -0.000003 0.000000 0.434914 4.486723 -26.650210 0.126200 1.210699 -11.901607 0.171719 1.409426 -13.892115 0.000001 -0.000000 0.000001 1.633477 6.797667 -27.448944 0.330722 1.942286 -19.325015 0.401438 2.133124 -21.313477 0.000001 -0.000002 -0.000002 3.038392 8.521951 -34.072716 0.278518 1.786563 -17.720735 0.277949 1.784770 -17.702172 0.000001 0.000004 0.000002 0.552466 4.135210 15.717223 0.000000 0.000000 0.000000 3.061867 28.096188 49.279859 -0.000000 23.795812 0.000022 -1.370122 0.937409 5.904074 12.604604 -3.092109 -3.819368 4.958724 -19.016369 -8.084363 -16.136260 -1.568456 -12.126144 -0.000003 -0.000002 -0.000002 -2.604814 4.000960 20.793312 0.395181 -1.879132 23.750091 0.077979 -0.849553 10.488010 0.000001 -0.000000 0.000001 -1.114238 -0.327557 22.216068 0.858155 -2.695801 35.310097 0.296086 -1.635657 20.519990 -0.000001 -0.000001 0.000002 -0.268988 -2.585358 24.354277 1.505983 -3.430896 47.387456 0.374057 -1.830414 23.097610 0.000001 0.000001 -0.000001 -0.053541 -3.321028 29.341806 0.569529 -2.233596 28.606378 0.178101 -1.276914 15.880017 -0.000000 0.000001 0.000001 -30.738396 7.822065 6.862077 52.711326 -4.191092 -0.460068 6.345145 -0.062677 -1.757520 -8.204080 0.000004 0.000001 0.000001 0.000000 0.000000 -16.749331 -8.246216 4.512279 25.601158 2.249153 -4.301531 -11.348503 0.097019 -0.076946 -4.971782 0.000001 -0.000000 -0.000000 -0.000000 0.000000 
0.298450 113.887909 0.802902 1.939823 1.928560 -2.648646 6.223939 -1.000734 2.518451 2.498234 -2.417830 1.232011 0.000000 0.000000 0.000000 2.471638 -2.373642 1.341658 -0.476554 2.128853 -0.237604 -3.192827 4.526923 -1.879946 -0.000000 0.000000 -0.000000 0.352425 -9.170001 -14.382083 0.000000 0.000000 0.000000 9.010357 -24.438422 -57.554391 0.000010 -11.063233 -0.000010 3.257407 3.553998 -10.593116 5.263823 3.578395 10.848687 6.474957 8.367299 6.367680 2.010757 -7.323450 21.363498 0.000001 -0.000000 -0.000000 -2.233608 -4.154913 -17.701586 0.202647 1.529032 -15.098410 0.202649 1.529041 -15.098410 -0.000002 0.000002 0.000000 0.434880 4.486598 -26.648617 0.126189 1.210633 -11.900804 0.171697 1.409318 -13.891165 0.000001 -0.000001 -0.000003 1.633287 6.797414 -27.447281 0.330676 1.942146 -19.323703 0.401385 2.132993 -21.312034 0.000000 -0.000002 0.000000 3.038002 8.521612 -34.070578 0.278482 1.786454 -17.719532 0.277907 1.784629 -17.700975 -0.000001 -0.000001 0.000000 0.551999 4.136470 15.717546 0.000000 0.000000 0.000000 3.065236 28.095285 49.277902 0.000006 23.806302 -0.000022 -1.366992 0.936642 5.900784 12.604078 -3.090580 -3.818882 4.958334 -19.014774 -8.084032 -16.136542 -1.566840 -12.125793 0.000000 -0.000000 -0.000003 -2.604901 4.001881 20.791745 0.395122 -1.879004 23.748336 0.077940 -0.849409 10.486307 0.000001 -0.000003 0.000000 -1.114371 -0.326926 22.214458 0.858070 -2.695689 35.308407 0.296039 -1.635528 20.518300 -0.000000 -0.000002 0.000001 -0.268912 -2.585364 24.352596 1.505867 -3.430806 47.385776 0.374003 -1.830289 23.095936 -0.000000 0.000001 -0.000001 -0.052953 -3.321968 29.340075 0.569471 -2.233473 28.604689 0.178063 -1.276774 15.878339 0.000001 0.000001 -0.000001 -30.738706 7.820480 6.864546 52.709905 -4.189279 -0.459745 6.343170 -0.061512 -1.759226 -8.202933 0.000000 0.000002 -0.000001 -0.000001 0.000001 -16.748302 -8.245849 4.509849 25.602710 2.248776 -4.301120 -11.351499 0.098115 -0.075383 -4.971323 0.000000 -0.000001 -0.000000 0.000000 0.000000 
1.657871 113.689949 2.291125 1.781265 2.117583 -2.383671 6.407799 -0.241686 2.345772 2.528581 -1.613456 1.064342 0.000000 0.000000 0.000000 2.545426 -1.578220 1.147881 -0.365332 1.971525 -0.237604 -3.183213 2.474958 -1.431030 0.000000 -0.000000 0.000000 0.372029 -9.555643 -15.041972 0.000000 0.000000 0.000000 8.216915 -22.540972 -57.446720 0.000000 -11.975298 -0.000004 3.731469 3.720167 -10.301918 4.891376 3.235535 10.703810 6.454767 8.503275 6.197296 1.690551 -7.139158 21.054519 0.000000 -0.000000 -0.000003 -2.093290 -3.936380 -17.208609 0.189389 1.479059 -14.593609 0.189407 1.479063 -14.593625 0.000002 0.000000 -0.000001 0.414362 4.427923 -25.861101 0.117918 1.170738 -11.502991 0.160460 1.363101 -13.426798 -0.000003 -0.000001 0.000001 1.539065 6.674522 -26.628319 0.309129 1.879618 -18.677439 0.375276 2.064864 -20.599166 0.000001 0.000000 -0.000002 2.853480 8.358706 -33.022838 0.260317 1.728577 -17.127029 0.259776 1.726834 -17.109071 0.000001 0.000003 0.000002 0.321545 4.755069 15.877632 0.000000 0.000000 0.000000 5.691780 26.887832 47.980723 -0.000000 30.206607 -0.000002 0.161390 0.516864 4.276230 12.348112 -2.339942 -3.584502 4.747131 -18.240230 -7.943279 -16.268368 -0.771219 -11.945346 0.000000 -0.000000 -0.000001 -2.640433 4.449051 20.018072 0.367972 -1.816113 22.906660 0.066215 -0.783326 9.662015 -0.000000 0.000003 0.000000 -1.172891 -0.021091 21.413893 0.819452 -2.640387 34.478979 0.272960 -1.572496 19.693792 -0.000000 0.000002 0.000001 -0.236785 -2.596237 23.523551 1.456695 -3.384985 46.558203 0.348102 -1.768352 22.271205 0.000001 -0.000002 -0.000000 0.223293 -3.787754 28.484143 0.537729 -2.174293 27.779086 0.160158 -1.212089 15.054044 -0.000000 -0.000005 -0.000002 -30.903935 7.040581 8.072800 52.007915 -3.295627 -0.303106 5.377180 0.514305 -2.609529 -7.629206 -0.000000 0.000000 0.000003 -0.000002 -0.000000 -16.157852 -8.059595 3.301775 26.224708 2.075233 -4.082133 -12.414862 0.633095 0.697129 -4.747457 -0.000000 0.000000 0.000000 -0.000000 0.000000 
3.129414 113.537033 3.815123 1.665047 2.270316 -2.062004 6.593886 0.499548 2.116656 2.561889 -0.802063 0.887917 0.000000 0.000000 0.000000 2.621665 -0.776055 0.944273 -0.268467 1.815119 -0.237641 -3.233341 0.353598 -1.007018 0.000000 0.000000 0.000000 0.371287 -9.985388 -15.641500 0.000000 0.000000 0.000000 7.405623 -20.584761 -57.407166 0.000013 -12.913636 -0.000003 4.214054 3.996367 -10.057968 4.508198 2.883749 10.550100 6.434251 8.643669 6.022189 1.361575 -6.945970 20.738894 0.000001 -0.000002 -0.000000 -1.948695 -3.694177 -16.699973 0.176220 1.427538 -14.074300 0.176234 1.427532 -14.074371 -0.000001 0.000001 0.000002 0.393841 4.367401 -25.050974 0.109709 1.129625 -11.093760 0.149291 1.315470 -12.949065 -0.000003 -0.000000 -0.000002 1.442350 6.540925 -25.786638 0.287708 1.815018 -18.012643 0.349295 1.994441 -19.865863 0.000001 -0.000000 -0.000000 2.655553 8.164937 -31.946847 0.242244 1.668860 -16.517479 0.241743 1.667134 -16.500187 -0.000002 0.000003 -0.000001 0.086862 5.408576 15.971892 0.000000 0.000000 0.000000 7.876280 25.924891 46.850054 -0.000005 35.801133 0.000032 1.774340 0.205092 2.579181 12.069505 -1.522698 -3.323963 4.515095 -17.396367 -7.788265 -16.417183 0.094982 -11.746319 0.000001 -0.000002 0.000005 -2.666696 4.938888 19.174977 0.339459 -1.747109 21.989246 0.054497 -0.711087 8.763527 -0.000001 0.000000 0.000001 -1.228165 0.314523 20.541871 0.778306 -2.579478 33.574976 0.248843 -1.503445 18.795082 0.000000 0.000001 -0.000002 -0.203310 -2.609194 22.619782 1.403818 -3.334194 45.656246 0.320900 -1.700454 21.372307 -0.000000 0.000000 -0.000001 0.507731 -4.304791 27.552428 0.504089 -2.109254 26.879233 0.141722 -1.141299 14.155582 -0.000004 -0.000001 -0.000000 -30.726733 6.298933 9.383896 50.526154 -1.870835 -0.112905 4.526436 1.098345 -3.927614 -7.104237 -0.000001 0.000002 0.000003 -0.000000 0.000000 -15.494813 -7.863474 1.955789 26.636800 1.938621 -3.822655 -13.363756 1.213067 1.528619 -4.497861 -0.000000 0.000000 -0.000000 0.000000 0.000000 
